<?xml version="1.0" encoding="UTF-8" standalone="no"?>
<!-- Generator: Adobe Illustrator 23.0.1, SVG Export Plug-In . SVG Version: 6.00 Build 0)  -->

<svg
   xmlns:dc="http://purl.org/dc/elements/1.1/"
   xmlns:cc="http://creativecommons.org/ns#"
   xmlns:rdf="http://www.w3.org/1999/02/22-rdf-syntax-ns#"
   xmlns:svg="http://www.w3.org/2000/svg"
   xmlns="http://www.w3.org/2000/svg"
   xmlns:sodipodi="http://sodipodi.sourceforge.net/DTD/sodipodi-0.dtd"
   xmlns:inkscape="http://www.inkscape.org/namespaces/inkscape"
   version="1.1"
   id="Layer_1"
   x="0px"
   y="0px"
   viewBox="0 0 122.8 122.8"
   xml:space="preserve"
   sodipodi:docname="slack_logo.svg"
   width="122.8"
   height="122.8"
   inkscape:version="0.92.5 (2060ec1f9f, 2020-04-08)"
   inkscape:export-filename="/home/jstevens/Desktop/slack_logo.png"
   inkscape:export-xdpi="90.099998"
   inkscape:export-ydpi="90.099998"><metadata
   id="metadata33"><rdf:RDF><cc:Work
       rdf:about=""><dc:format>image/svg+xml</dc:format><dc:type
         rdf:resource="http://purl.org/dc/dcmitype/StillImage" /><dc:title></dc:title></cc:Work></rdf:RDF></metadata><defs
   id="defs31">
	
	
	
	

		
		
	
		
		
	
		
		
	
		
		
	</defs><sodipodi:namedview
   pagecolor="#ffffff"
   bordercolor="#666666"
   borderopacity="1"
   objecttolerance="10"
   gridtolerance="10"
   guidetolerance="10"
   inkscape:pageopacity="0"
   inkscape:pageshadow="2"
   inkscape:window-width="1920"
   inkscape:window-height="1050"
   id="namedview29"
   showgrid="false"
   inkscape:zoom="0.87407407"
   inkscape:cx="61.4"
   inkscape:cy="61.4"
   inkscape:window-x="1440"
   inkscape:window-y="0"
   inkscape:window-maximized="1"
   inkscape:current-layer="Layer_1"
   fit-margin-top="0"
   fit-margin-left="0"
   fit-margin-right="0"
   fit-margin-bottom="0" />
<path
   d="M 25.8,77.6 C 25.8,84.7 20,90.5 12.9,90.5 5.8,90.5 0,84.7 0,77.6 0,70.5 5.8,64.7 12.9,64.7 h 12.9 z"
   id="path2"
   inkscape:connector-curvature="0"
   style="fill:#4e4e4e;fill-opacity:1" /><path
   d="m 32.3,77.6 c 0,-7.1 5.8,-12.9 12.9,-12.9 7.1,0 12.9,5.8 12.9,12.9 v 32.3 c 0,7.1 -5.8,12.9 -12.9,12.9 -7.1,0 -12.9,-5.8 -12.9,-12.9 0,0 0,-32.3 0,-32.3 z"
   id="path4"
   inkscape:connector-curvature="0"
   style="fill:#4e4e4e;fill-opacity:1" /><path
   d="M 45.2,25.8 C 38.1,25.8 32.3,20 32.3,12.9 32.3,5.8 38.1,0 45.2,0 52.3,0 58.1,5.8 58.1,12.9 v 12.9 z"
   id="path8"
   inkscape:connector-curvature="0"
   style="fill:#4e4e4e;fill-opacity:1" /><path
   d="m 45.2,32.3 c 7.1,0 12.9,5.8 12.9,12.9 0,7.1 -5.8,12.9 -12.9,12.9 H 12.9 C 5.8,58.1 0,52.3 0,45.2 0,38.1 5.8,32.3 12.9,32.3 c 0,0 32.3,0 32.3,0 z"
   id="path10"
   inkscape:connector-curvature="0"
   style="fill:#4e4e4e;fill-opacity:1" /><path
   d="m 97,45.2 c 0,-7.1 5.8,-12.9 12.9,-12.9 7.1,0 12.9,5.8 12.9,12.9 0,7.1 -5.8,12.9 -12.9,12.9 H 97 Z"
   id="path14"
   inkscape:connector-curvature="0"
   style="fill:#4e4e4e;fill-opacity:1" /><path
   d="m 90.5,45.2 c 0,7.1 -5.8,12.9 -12.9,12.9 -7.1,0 -12.9,-5.8 -12.9,-12.9 V 12.9 C 64.7,5.8 70.5,0 77.6,0 84.7,0 90.5,5.8 90.5,12.9 Z"
   id="path16"
   inkscape:connector-curvature="0"
   style="fill:#4e4e4e;fill-opacity:1" /><path
   d="m 77.6,97 c 7.1,0 12.9,5.8 12.9,12.9 0,7.1 -5.8,12.9 -12.9,12.9 -7.1,0 -12.9,-5.8 -12.9,-12.9 V 97 Z"
   id="path20"
   inkscape:connector-curvature="0"
   style="fill:#4e4e4e;fill-opacity:1" /><path
   d="m 77.6,90.5 c -7.1,0 -12.9,-5.8 -12.9,-12.9 0,-7.1 5.8,-12.9 12.9,-12.9 h 32.3 c 7.1,0 12.9,5.8 12.9,12.9 0,7.1 -5.8,12.9 -12.9,12.9 z"
   id="path22"
   inkscape:connector-curvature="0"
   style="fill:#4e4e4e;fill-opacity:1" />
</svg>